<mxfile host="Electron" agent="Mozilla/5.0 (Macintosh; Intel Mac OS X 10_15_7) AppleWebKit/537.36 (KHTML, like Gecko) draw.io/26.0.16 Chrome/132.0.6834.196 Electron/34.2.0 Safari/537.36" version="26.0.16" pages="2">
  <diagram name="Page-1" id="-H_mtQnk-PTXWXPvYvuk">
    <mxGraphModel dx="954" dy="674" grid="1" gridSize="10" guides="1" tooltips="1" connect="1" arrows="1" fold="1" page="1" pageScale="1" pageWidth="1169" pageHeight="827" math="0" shadow="0">
      <root>
        <mxCell id="0" />
        <mxCell id="1" parent="0" />
        <mxCell id="zA23MoTUsTF4_91t8viU-2" value="MongoDB" style="shape=cylinder3;whiteSpace=wrap;html=1;boundedLbl=1;backgroundOutline=1;size=15;" vertex="1" parent="1">
          <mxGeometry x="560" y="280" width="60" height="80" as="geometry" />
        </mxCell>
        <mxCell id="zA23MoTUsTF4_91t8viU-3" value="pymongo-api" style="rounded=1;whiteSpace=wrap;html=1;" vertex="1" parent="1">
          <mxGeometry x="360" y="290" width="120" height="60" as="geometry" />
        </mxCell>
        <mxCell id="zA23MoTUsTF4_91t8viU-4" style="edgeStyle=orthogonalEdgeStyle;rounded=0;orthogonalLoop=1;jettySize=auto;html=1;exitX=1;exitY=0.5;exitDx=0;exitDy=0;entryX=0;entryY=0.5;entryDx=0;entryDy=0;entryPerimeter=0;" edge="1" parent="1" source="zA23MoTUsTF4_91t8viU-3" target="zA23MoTUsTF4_91t8viU-2">
          <mxGeometry relative="1" as="geometry" />
        </mxCell>
      </root>
    </mxGraphModel>
  </diagram>
  <diagram name="Solution" id="bLnKg3DU4iCWz6eoyRbB">
    <mxGraphModel dx="954" dy="699" grid="1" gridSize="10" guides="1" tooltips="1" connect="1" arrows="1" fold="1" page="1" pageScale="1" pageWidth="1169" pageHeight="827" math="0" shadow="0">
      <root>
        <mxCell id="Oj5VGBXcJ4noc2HTq50m-0" />
        <mxCell id="Oj5VGBXcJ4noc2HTq50m-1" parent="Oj5VGBXcJ4noc2HTq50m-0" />
        <mxCell id="Oj5VGBXcJ4noc2HTq50m-2" value="MongoDB" style="shape=cylinder3;whiteSpace=wrap;html=1;boundedLbl=1;backgroundOutline=1;size=15;" vertex="1" parent="Oj5VGBXcJ4noc2HTq50m-1">
          <mxGeometry x="535" y="280" width="110" height="80" as="geometry" />
        </mxCell>
        <mxCell id="Oj5VGBXcJ4noc2HTq50m-3" value="pymongo-api" style="rounded=1;whiteSpace=wrap;html=1;" vertex="1" parent="Oj5VGBXcJ4noc2HTq50m-1">
          <mxGeometry x="360" y="290" width="120" height="60" as="geometry" />
        </mxCell>
        <mxCell id="Oj5VGBXcJ4noc2HTq50m-4" style="edgeStyle=orthogonalEdgeStyle;rounded=0;orthogonalLoop=1;jettySize=auto;html=1;exitX=1;exitY=0.5;exitDx=0;exitDy=0;entryX=0;entryY=0.5;entryDx=0;entryDy=0;entryPerimeter=0;" edge="1" parent="Oj5VGBXcJ4noc2HTq50m-1" source="Oj5VGBXcJ4noc2HTq50m-3" target="Oj5VGBXcJ4noc2HTq50m-2">
          <mxGeometry relative="1" as="geometry" />
        </mxCell>
        <mxCell id="S3nMloLtgRK69dN4Voro-0" value="Redis" style="shape=cylinder3;whiteSpace=wrap;html=1;boundedLbl=1;backgroundOutline=1;size=15;" vertex="1" parent="Oj5VGBXcJ4noc2HTq50m-1">
          <mxGeometry x="400" y="140" width="60" height="80" as="geometry" />
        </mxCell>
        <mxCell id="S3nMloLtgRK69dN4Voro-1" value="" style="endArrow=classic;startArrow=classic;html=1;rounded=0;entryX=0.5;entryY=1;entryDx=0;entryDy=0;entryPerimeter=0;" edge="1" parent="Oj5VGBXcJ4noc2HTq50m-1" target="S3nMloLtgRK69dN4Voro-0">
          <mxGeometry width="50" height="50" relative="1" as="geometry">
            <mxPoint x="430" y="290" as="sourcePoint" />
            <mxPoint x="510" y="340" as="targetPoint" />
          </mxGeometry>
        </mxCell>
        <mxCell id="S3nMloLtgRK69dN4Voro-2" value="MongoDB" style="shape=cylinder3;whiteSpace=wrap;html=1;boundedLbl=1;backgroundOutline=1;size=15;" vertex="1" parent="Oj5VGBXcJ4noc2HTq50m-1">
          <mxGeometry x="710" y="280" width="60" height="80" as="geometry" />
        </mxCell>
        <mxCell id="S3nMloLtgRK69dN4Voro-3" value="MongoDB" style="shape=cylinder3;whiteSpace=wrap;html=1;boundedLbl=1;backgroundOutline=1;size=15;" vertex="1" parent="Oj5VGBXcJ4noc2HTq50m-1">
          <mxGeometry x="560" y="150" width="60" height="80" as="geometry" />
        </mxCell>
        <mxCell id="S3nMloLtgRK69dN4Voro-4" value="MongoDB" style="shape=cylinder3;whiteSpace=wrap;html=1;boundedLbl=1;backgroundOutline=1;size=15;" vertex="1" parent="Oj5VGBXcJ4noc2HTq50m-1">
          <mxGeometry x="710" y="160" width="60" height="80" as="geometry" />
        </mxCell>
        <mxCell id="S3nMloLtgRK69dN4Voro-5" value="MongoDB" style="shape=cylinder3;whiteSpace=wrap;html=1;boundedLbl=1;backgroundOutline=1;size=15;" vertex="1" parent="Oj5VGBXcJ4noc2HTq50m-1">
          <mxGeometry x="840" y="200" width="60" height="80" as="geometry" />
        </mxCell>
        <mxCell id="S3nMloLtgRK69dN4Voro-6" value="MongoDB" style="shape=cylinder3;whiteSpace=wrap;html=1;boundedLbl=1;backgroundOutline=1;size=15;" vertex="1" parent="Oj5VGBXcJ4noc2HTq50m-1">
          <mxGeometry x="840" y="80" width="60" height="80" as="geometry" />
        </mxCell>
        <mxCell id="S3nMloLtgRK69dN4Voro-7" value="MongoDB" style="shape=cylinder3;whiteSpace=wrap;html=1;boundedLbl=1;backgroundOutline=1;size=15;" vertex="1" parent="Oj5VGBXcJ4noc2HTq50m-1">
          <mxGeometry x="840" y="414" width="60" height="80" as="geometry" />
        </mxCell>
        <mxCell id="S3nMloLtgRK69dN4Voro-8" value="MongoDB" style="shape=cylinder3;whiteSpace=wrap;html=1;boundedLbl=1;backgroundOutline=1;size=15;" vertex="1" parent="Oj5VGBXcJ4noc2HTq50m-1">
          <mxGeometry x="840" y="290" width="60" height="80" as="geometry" />
        </mxCell>
        <mxCell id="S3nMloLtgRK69dN4Voro-9" value="redis1" style="text;html=1;align=center;verticalAlign=middle;whiteSpace=wrap;rounded=0;" vertex="1" parent="Oj5VGBXcJ4noc2HTq50m-1">
          <mxGeometry x="400" y="135" width="60" height="30" as="geometry" />
        </mxCell>
        <mxCell id="S3nMloLtgRK69dN4Voro-10" value="shard1r0" style="text;html=1;align=center;verticalAlign=middle;whiteSpace=wrap;rounded=0;" vertex="1" parent="Oj5VGBXcJ4noc2HTq50m-1">
          <mxGeometry x="710" y="160" width="60" height="30" as="geometry" />
        </mxCell>
        <mxCell id="S3nMloLtgRK69dN4Voro-11" value="shard2r0" style="text;html=1;align=center;verticalAlign=middle;whiteSpace=wrap;rounded=0;" vertex="1" parent="Oj5VGBXcJ4noc2HTq50m-1">
          <mxGeometry x="710" y="280" width="60" height="30" as="geometry" />
        </mxCell>
        <mxCell id="S3nMloLtgRK69dN4Voro-12" value="shard1r1" style="text;html=1;align=center;verticalAlign=middle;whiteSpace=wrap;rounded=0;" vertex="1" parent="Oj5VGBXcJ4noc2HTq50m-1">
          <mxGeometry x="840" y="110" width="60" height="30" as="geometry" />
        </mxCell>
        <mxCell id="S3nMloLtgRK69dN4Voro-13" value="shard1r2" style="text;html=1;align=center;verticalAlign=middle;whiteSpace=wrap;rounded=0;" vertex="1" parent="Oj5VGBXcJ4noc2HTq50m-1">
          <mxGeometry x="840" y="200" width="60" height="30" as="geometry" />
        </mxCell>
        <mxCell id="S3nMloLtgRK69dN4Voro-14" value="shard2r1" style="text;html=1;align=center;verticalAlign=middle;whiteSpace=wrap;rounded=0;" vertex="1" parent="Oj5VGBXcJ4noc2HTq50m-1">
          <mxGeometry x="840" y="290" width="60" height="30" as="geometry" />
        </mxCell>
        <mxCell id="S3nMloLtgRK69dN4Voro-15" value="shard2r2" style="text;html=1;align=center;verticalAlign=middle;whiteSpace=wrap;rounded=0;" vertex="1" parent="Oj5VGBXcJ4noc2HTq50m-1">
          <mxGeometry x="840" y="380" width="60" height="30" as="geometry" />
        </mxCell>
        <mxCell id="S3nMloLtgRK69dN4Voro-16" value="configSrv" style="text;html=1;align=center;verticalAlign=middle;whiteSpace=wrap;rounded=0;" vertex="1" parent="Oj5VGBXcJ4noc2HTq50m-1">
          <mxGeometry x="560" y="150" width="60" height="30" as="geometry" />
        </mxCell>
        <mxCell id="S3nMloLtgRK69dN4Voro-18" value="mongo_router" style="text;html=1;align=center;verticalAlign=middle;whiteSpace=wrap;rounded=0;" vertex="1" parent="Oj5VGBXcJ4noc2HTq50m-1">
          <mxGeometry x="560" y="280" width="60" height="30" as="geometry" />
        </mxCell>
        <mxCell id="S3nMloLtgRK69dN4Voro-19" value="" style="endArrow=classic;startArrow=classic;html=1;rounded=0;entryX=0.5;entryY=1;entryDx=0;entryDy=0;entryPerimeter=0;exitX=0.5;exitY=0;exitDx=0;exitDy=0;exitPerimeter=0;" edge="1" parent="Oj5VGBXcJ4noc2HTq50m-1" source="Oj5VGBXcJ4noc2HTq50m-2" target="S3nMloLtgRK69dN4Voro-3">
          <mxGeometry width="50" height="50" relative="1" as="geometry">
            <mxPoint x="590" y="260" as="sourcePoint" />
            <mxPoint x="510" y="340" as="targetPoint" />
          </mxGeometry>
        </mxCell>
        <mxCell id="S3nMloLtgRK69dN4Voro-21" value="" style="endArrow=classic;startArrow=classic;html=1;rounded=0;entryX=1;entryY=0.5;entryDx=0;entryDy=0;entryPerimeter=0;exitX=0;exitY=0.5;exitDx=0;exitDy=0;exitPerimeter=0;" edge="1" parent="Oj5VGBXcJ4noc2HTq50m-1" source="S3nMloLtgRK69dN4Voro-2" target="Oj5VGBXcJ4noc2HTq50m-2">
          <mxGeometry width="50" height="50" relative="1" as="geometry">
            <mxPoint x="460" y="390" as="sourcePoint" />
            <mxPoint x="510" y="340" as="targetPoint" />
          </mxGeometry>
        </mxCell>
        <mxCell id="S3nMloLtgRK69dN4Voro-22" value="" style="endArrow=classic;startArrow=classic;html=1;rounded=0;exitX=0;exitY=0.5;exitDx=0;exitDy=0;exitPerimeter=0;" edge="1" parent="Oj5VGBXcJ4noc2HTq50m-1" source="S3nMloLtgRK69dN4Voro-4">
          <mxGeometry width="50" height="50" relative="1" as="geometry">
            <mxPoint x="460" y="390" as="sourcePoint" />
            <mxPoint x="650" y="320" as="targetPoint" />
          </mxGeometry>
        </mxCell>
        <mxCell id="S3nMloLtgRK69dN4Voro-23" value="" style="endArrow=classic;startArrow=classic;html=1;rounded=0;entryX=0;entryY=0.5;entryDx=0;entryDy=0;entryPerimeter=0;exitX=1;exitY=0.5;exitDx=0;exitDy=0;exitPerimeter=0;" edge="1" parent="Oj5VGBXcJ4noc2HTq50m-1" source="S3nMloLtgRK69dN4Voro-2" target="S3nMloLtgRK69dN4Voro-7">
          <mxGeometry width="50" height="50" relative="1" as="geometry">
            <mxPoint x="460" y="390" as="sourcePoint" />
            <mxPoint x="510" y="340" as="targetPoint" />
          </mxGeometry>
        </mxCell>
        <mxCell id="S3nMloLtgRK69dN4Voro-24" value="" style="endArrow=classic;startArrow=classic;html=1;rounded=0;entryX=1;entryY=0.5;entryDx=0;entryDy=0;entryPerimeter=0;exitX=0;exitY=0.5;exitDx=0;exitDy=0;exitPerimeter=0;" edge="1" parent="Oj5VGBXcJ4noc2HTq50m-1" source="S3nMloLtgRK69dN4Voro-8" target="S3nMloLtgRK69dN4Voro-2">
          <mxGeometry width="50" height="50" relative="1" as="geometry">
            <mxPoint x="460" y="390" as="sourcePoint" />
            <mxPoint x="510" y="340" as="targetPoint" />
          </mxGeometry>
        </mxCell>
        <mxCell id="S3nMloLtgRK69dN4Voro-25" value="" style="endArrow=classic;startArrow=classic;html=1;rounded=0;entryX=1;entryY=0.5;entryDx=0;entryDy=0;entryPerimeter=0;exitX=0;exitY=0.5;exitDx=0;exitDy=0;exitPerimeter=0;" edge="1" parent="Oj5VGBXcJ4noc2HTq50m-1" source="S3nMloLtgRK69dN4Voro-6" target="S3nMloLtgRK69dN4Voro-4">
          <mxGeometry width="50" height="50" relative="1" as="geometry">
            <mxPoint x="460" y="390" as="sourcePoint" />
            <mxPoint x="510" y="340" as="targetPoint" />
          </mxGeometry>
        </mxCell>
        <mxCell id="S3nMloLtgRK69dN4Voro-26" value="" style="endArrow=classic;startArrow=classic;html=1;rounded=0;entryX=1;entryY=0.5;entryDx=0;entryDy=0;entryPerimeter=0;exitX=0;exitY=0.5;exitDx=0;exitDy=0;exitPerimeter=0;" edge="1" parent="Oj5VGBXcJ4noc2HTq50m-1" source="S3nMloLtgRK69dN4Voro-5" target="S3nMloLtgRK69dN4Voro-4">
          <mxGeometry width="50" height="50" relative="1" as="geometry">
            <mxPoint x="460" y="390" as="sourcePoint" />
            <mxPoint x="510" y="340" as="targetPoint" />
          </mxGeometry>
        </mxCell>
        <mxCell id="S3nMloLtgRK69dN4Voro-27" value="" style="endArrow=classic;startArrow=classic;html=1;rounded=0;entryX=0.5;entryY=1;entryDx=0;entryDy=0;entryPerimeter=0;exitX=0.5;exitY=0;exitDx=0;exitDy=0;" edge="1" parent="Oj5VGBXcJ4noc2HTq50m-1" source="S3nMloLtgRK69dN4Voro-13" target="S3nMloLtgRK69dN4Voro-6">
          <mxGeometry width="50" height="50" relative="1" as="geometry">
            <mxPoint x="460" y="390" as="sourcePoint" />
            <mxPoint x="510" y="340" as="targetPoint" />
          </mxGeometry>
        </mxCell>
        <mxCell id="S3nMloLtgRK69dN4Voro-28" value="" style="endArrow=classic;startArrow=classic;html=1;rounded=0;entryX=0.5;entryY=1;entryDx=0;entryDy=0;entryPerimeter=0;exitX=0.5;exitY=1;exitDx=0;exitDy=0;" edge="1" parent="Oj5VGBXcJ4noc2HTq50m-1" source="S3nMloLtgRK69dN4Voro-15" target="S3nMloLtgRK69dN4Voro-8">
          <mxGeometry width="50" height="50" relative="1" as="geometry">
            <mxPoint x="460" y="390" as="sourcePoint" />
            <mxPoint x="510" y="340" as="targetPoint" />
          </mxGeometry>
        </mxCell>
        <mxCell id="S3nMloLtgRK69dN4Voro-29" value="Actor" style="shape=umlActor;verticalLabelPosition=bottom;verticalAlign=top;html=1;" vertex="1" parent="Oj5VGBXcJ4noc2HTq50m-1">
          <mxGeometry x="230" y="290" width="30" height="60" as="geometry" />
        </mxCell>
        <mxCell id="S3nMloLtgRK69dN4Voro-30" value="" style="endArrow=classic;startArrow=classic;html=1;rounded=0;entryX=0;entryY=0.5;entryDx=0;entryDy=0;" edge="1" parent="Oj5VGBXcJ4noc2HTq50m-1" source="S3nMloLtgRK69dN4Voro-29" target="Oj5VGBXcJ4noc2HTq50m-3">
          <mxGeometry width="50" height="50" relative="1" as="geometry">
            <mxPoint x="460" y="390" as="sourcePoint" />
            <mxPoint x="510" y="340" as="targetPoint" />
          </mxGeometry>
        </mxCell>
      </root>
    </mxGraphModel>
  </diagram>
</mxfile>
